<mxfile host="app.diagrams.net" modified="2023-07-01T23:00:07.063Z" agent="Mozilla/5.0 (Windows NT 10.0; Win64; x64) AppleWebKit/537.36 (KHTML, like Gecko) Chrome/114.0.0.0 Safari/537.36" etag="g2tk_sZL6hjVCQtEoDj0" version="21.5.1" type="device">
  <diagram id="C5RBs43oDa-KdzZeNtuy" name="Page-1">
    <mxGraphModel dx="1409" dy="1650" grid="1" gridSize="10" guides="1" tooltips="1" connect="1" arrows="1" fold="1" page="1" pageScale="1" pageWidth="827" pageHeight="1169" math="0" shadow="0">
      <root>
        <mxCell id="WIyWlLk6GJQsqaUBKTNV-0" />
        <mxCell id="WIyWlLk6GJQsqaUBKTNV-1" parent="WIyWlLk6GJQsqaUBKTNV-0" />
        <mxCell id="w5hDPDLTwG2HqgLFjR9o-2" value="Hotel&amp;nbsp;" style="swimlane;fontStyle=0;childLayout=stackLayout;horizontal=1;startSize=26;fillColor=none;horizontalStack=0;resizeParent=1;resizeParentMax=0;resizeLast=0;collapsible=1;marginBottom=0;whiteSpace=wrap;html=1;" parent="WIyWlLk6GJQsqaUBKTNV-1" vertex="1">
          <mxGeometry x="-710" y="70" width="300" height="170" as="geometry" />
        </mxCell>
        <mxCell id="w5hDPDLTwG2HqgLFjR9o-7" value="Methods" style="swimlane;fontStyle=0;childLayout=stackLayout;horizontal=1;startSize=26;fillColor=none;horizontalStack=0;resizeParent=1;resizeParentMax=0;resizeLast=0;collapsible=1;marginBottom=0;whiteSpace=wrap;html=1;" parent="WIyWlLk6GJQsqaUBKTNV-1" vertex="1">
          <mxGeometry x="-180" y="940" width="530" height="220" as="geometry" />
        </mxCell>
        <mxCell id="w5hDPDLTwG2HqgLFjR9o-8" value="+ agregarHabitacion(habitacion: Habitacion)&amp;nbsp; &amp;nbsp; &amp;nbsp;&lt;br&gt;&amp;nbsp;+ quitarHabitacion(habitacion: Habitacion)&amp;nbsp; &amp;nbsp; &amp;nbsp; &amp;nbsp;&lt;br&gt;+asignarPermisos():String" style="text;strokeColor=none;fillColor=none;align=left;verticalAlign=top;spacingLeft=4;spacingRight=4;overflow=hidden;rotatable=0;points=[[0,0.5],[1,0.5]];portConstraint=eastwest;whiteSpace=wrap;html=1;" parent="w5hDPDLTwG2HqgLFjR9o-7" vertex="1">
          <mxGeometry y="26" width="530" height="194" as="geometry" />
        </mxCell>
        <mxCell id="w5hDPDLTwG2HqgLFjR9o-11" value="Habitacion" style="swimlane;fontStyle=1;align=center;verticalAlign=top;childLayout=stackLayout;horizontal=1;startSize=26;horizontalStack=0;resizeParent=1;resizeParentMax=0;resizeLast=0;collapsible=1;marginBottom=0;whiteSpace=wrap;html=1;" parent="WIyWlLk6GJQsqaUBKTNV-1" vertex="1">
          <mxGeometry x="210" y="-90" width="400" height="450" as="geometry" />
        </mxCell>
        <mxCell id="w5hDPDLTwG2HqgLFjR9o-12" value="- numero: int&lt;br&gt;&amp;nbsp; &amp;nbsp; &amp;nbsp; &amp;nbsp; &amp;nbsp; &amp;nbsp; &amp;nbsp; &amp;nbsp; &amp;nbsp; &amp;nbsp; &amp;nbsp; &amp;nbsp; &amp;nbsp; &amp;nbsp;&amp;nbsp;&lt;br&gt;- tipo: String&lt;br&gt;&amp;nbsp; &amp;nbsp;&lt;br&gt;-estado: EstadoHabitacion&amp;nbsp;&lt;br&gt;&lt;br&gt;&amp;nbsp;-&amp;nbsp;motivoNoDisponibilidad: String&lt;br&gt;&amp;nbsp;&lt;br&gt;-precio: double&amp;nbsp;&lt;br&gt;&lt;br&gt;-categoria: categoriaHabitacion" style="text;strokeColor=none;fillColor=none;align=left;verticalAlign=top;spacingLeft=4;spacingRight=4;overflow=hidden;rotatable=0;points=[[0,0.5],[1,0.5]];portConstraint=eastwest;whiteSpace=wrap;html=1;" parent="w5hDPDLTwG2HqgLFjR9o-11" vertex="1">
          <mxGeometry y="26" width="400" height="164" as="geometry" />
        </mxCell>
        <mxCell id="w5hDPDLTwG2HqgLFjR9o-13" value="" style="line;strokeWidth=1;fillColor=none;align=left;verticalAlign=middle;spacingTop=-1;spacingLeft=3;spacingRight=3;rotatable=0;labelPosition=right;points=[];portConstraint=eastwest;strokeColor=inherit;" parent="w5hDPDLTwG2HqgLFjR9o-11" vertex="1">
          <mxGeometry y="190" width="400" height="8" as="geometry" />
        </mxCell>
        <mxCell id="w5hDPDLTwG2HqgLFjR9o-14" value="+ getNumero(): int&amp;nbsp; &amp;nbsp;&amp;nbsp; &amp;nbsp; &amp;nbsp; &amp;nbsp; &amp;nbsp; &amp;nbsp; &amp;nbsp; &amp;nbsp; &amp;nbsp;&amp;nbsp;&lt;br&gt;&amp;nbsp;+ getTipo(): String&amp;nbsp; &amp;nbsp; &amp;nbsp; &amp;nbsp; &amp;nbsp; &amp;nbsp; &amp;nbsp; &amp;nbsp; &amp;nbsp; &amp;nbsp; &amp;nbsp; &amp;nbsp; &amp;nbsp; &amp;nbsp; &amp;nbsp;&amp;nbsp;&lt;br&gt;+ getEstado(): EstadoHabitacion&amp;nbsp; &amp;nbsp; &amp;nbsp; &amp;nbsp; &amp;nbsp; &amp;nbsp; &amp;nbsp; &amp;nbsp; &amp;nbsp;&amp;nbsp;&lt;br&gt;&amp;nbsp;+ getMotivoNoDisponibilidad(): String&amp;nbsp; &amp;nbsp; &amp;nbsp; &amp;nbsp; &amp;nbsp; &amp;nbsp;&amp;nbsp;&lt;br&gt;+ getOcupante(): Pasajero&amp;nbsp; &amp;nbsp; &amp;nbsp; &amp;nbsp; &amp;nbsp; &amp;nbsp; &amp;nbsp; &amp;nbsp; &amp;nbsp; &amp;nbsp; &amp;nbsp; &amp;nbsp;&amp;nbsp;&lt;br&gt;+ setOcupante(pasajero: Pasajero)&amp;nbsp; &amp;nbsp; &amp;nbsp; &amp;nbsp; &amp;nbsp; &amp;nbsp; &amp;nbsp; &amp;nbsp;&amp;nbsp;&lt;br&gt;&amp;nbsp;+ ocuparHabitacion(pasajero: Pasajero)&amp;nbsp; &amp;nbsp; &amp;nbsp; &amp;nbsp; &amp;nbsp; &amp;nbsp;&lt;br&gt;+ desocuparHabitacion()&amp;nbsp; &amp;nbsp; &amp;nbsp; &amp;nbsp; &amp;nbsp; &amp;nbsp; &amp;nbsp; &amp;nbsp; &amp;nbsp; &amp;nbsp; &amp;nbsp; &amp;nbsp; &amp;nbsp;&amp;nbsp;&lt;br&gt;+ marcarHabitacionNoDisponible(motivo: String)&lt;br&gt;&lt;div&gt;+String getRoomNumber();&lt;/div&gt;&lt;div&gt;&amp;nbsp;&lt;span style=&quot;background-color: initial;&quot;&gt;+Double getRoomPrice();&lt;/span&gt;&lt;/div&gt;&lt;div&gt;&amp;nbsp;&lt;span style=&quot;background-color: initial;&quot;&gt;+RoomType getRoomType();&lt;/span&gt;&lt;/div&gt;&lt;div&gt;+String isFree();&lt;/div&gt;" style="text;strokeColor=none;fillColor=none;align=left;verticalAlign=top;spacingLeft=4;spacingRight=4;overflow=hidden;rotatable=0;points=[[0,0.5],[1,0.5]];portConstraint=eastwest;whiteSpace=wrap;html=1;" parent="w5hDPDLTwG2HqgLFjR9o-11" vertex="1">
          <mxGeometry y="198" width="400" height="252" as="geometry" />
        </mxCell>
        <mxCell id="w5hDPDLTwG2HqgLFjR9o-15" value="Reserva" style="swimlane;fontStyle=1;align=center;verticalAlign=top;childLayout=stackLayout;horizontal=1;startSize=26;horizontalStack=0;resizeParent=1;resizeParentMax=0;resizeLast=0;collapsible=1;marginBottom=0;whiteSpace=wrap;html=1;" parent="WIyWlLk6GJQsqaUBKTNV-1" vertex="1">
          <mxGeometry x="-470" y="414" width="240" height="220" as="geometry" />
        </mxCell>
        <mxCell id="w5hDPDLTwG2HqgLFjR9o-16" value="- pasajero: Pasajero&amp;nbsp;&lt;br&gt;&lt;br&gt;&amp;nbsp;- habitacion:Habitacion&amp;nbsp; &amp;nbsp; &amp;nbsp; &amp;nbsp; &amp;nbsp; &amp;nbsp; &amp;nbsp; &amp;nbsp; &amp;nbsp; &amp;nbsp;&lt;br&gt;&lt;br&gt;&amp;nbsp;- inicio: Date&amp;nbsp;&lt;br&gt;&amp;nbsp; &amp;nbsp; &amp;nbsp; &amp;nbsp; &amp;nbsp; &amp;nbsp; &amp;nbsp; &amp;nbsp; &amp;nbsp; &amp;nbsp; &amp;nbsp; &amp;nbsp; &amp;nbsp; &amp;nbsp; &amp;nbsp; &amp;nbsp; &amp;nbsp;&amp;nbsp;&lt;br&gt;&amp;nbsp;- fin: Date" style="text;strokeColor=none;fillColor=none;align=left;verticalAlign=top;spacingLeft=4;spacingRight=4;overflow=hidden;rotatable=0;points=[[0,0.5],[1,0.5]];portConstraint=eastwest;whiteSpace=wrap;html=1;" parent="w5hDPDLTwG2HqgLFjR9o-15" vertex="1">
          <mxGeometry y="26" width="240" height="114" as="geometry" />
        </mxCell>
        <mxCell id="w5hDPDLTwG2HqgLFjR9o-17" value="" style="line;strokeWidth=1;fillColor=none;align=left;verticalAlign=middle;spacingTop=-1;spacingLeft=3;spacingRight=3;rotatable=0;labelPosition=right;points=[];portConstraint=eastwest;strokeColor=inherit;" parent="w5hDPDLTwG2HqgLFjR9o-15" vertex="1">
          <mxGeometry y="140" width="240" height="8" as="geometry" />
        </mxCell>
        <mxCell id="w5hDPDLTwG2HqgLFjR9o-18" value="+ getPasajero(): Pasajero&amp;nbsp; &amp;nbsp; &amp;nbsp; &amp;nbsp; &amp;nbsp; &amp;nbsp; &amp;nbsp; &amp;nbsp; &amp;nbsp; &amp;nbsp; &amp;nbsp; &amp;nbsp; &lt;br&gt;+ getHabitacion(): Habitacion&amp;nbsp; &amp;nbsp; &amp;nbsp; &amp;nbsp; &amp;nbsp; &amp;nbsp; &amp;nbsp; &amp;nbsp; &amp;nbsp; &amp;nbsp; &amp;nbsp; + getInicio(): Date&amp;nbsp; &amp;nbsp; &amp;nbsp; &amp;nbsp; &amp;nbsp; &amp;nbsp; &amp;nbsp; &amp;nbsp; &amp;nbsp; &amp;nbsp; &amp;nbsp; &amp;nbsp; &amp;nbsp; &amp;nbsp; &amp;nbsp; &lt;br&gt;+ getFin(): Date&amp;nbsp; &amp;nbsp; &amp;nbsp;&amp;nbsp;" style="text;strokeColor=none;fillColor=none;align=left;verticalAlign=top;spacingLeft=4;spacingRight=4;overflow=hidden;rotatable=0;points=[[0,0.5],[1,0.5]];portConstraint=eastwest;whiteSpace=wrap;html=1;" parent="w5hDPDLTwG2HqgLFjR9o-15" vertex="1">
          <mxGeometry y="148" width="240" height="72" as="geometry" />
        </mxCell>
        <mxCell id="w5hDPDLTwG2HqgLFjR9o-19" value="Pasajero" style="swimlane;fontStyle=1;align=center;verticalAlign=top;childLayout=stackLayout;horizontal=1;startSize=26;horizontalStack=0;resizeParent=1;resizeParentMax=0;resizeLast=0;collapsible=1;marginBottom=0;whiteSpace=wrap;html=1;" parent="WIyWlLk6GJQsqaUBKTNV-1" vertex="1">
          <mxGeometry x="570" y="810" width="250" height="310" as="geometry" />
        </mxCell>
        <mxCell id="w5hDPDLTwG2HqgLFjR9o-20" value="-origen: String&lt;br&gt;&amp;nbsp; &amp;nbsp; &amp;nbsp; &amp;nbsp; &amp;nbsp; &amp;nbsp; &amp;nbsp; &amp;nbsp; &amp;nbsp; &amp;nbsp; &amp;nbsp; &amp;nbsp; &amp;nbsp; &amp;nbsp; &amp;nbsp; &amp;nbsp; &amp;nbsp;&lt;br&gt;-domicilioOrigen: String&lt;br&gt;&amp;nbsp; &amp;nbsp; &amp;nbsp; &amp;nbsp; &amp;nbsp; &amp;nbsp; &amp;nbsp; &amp;nbsp; &amp;nbsp; &amp;nbsp;&lt;br&gt;-historial:List&amp;lt;HistorialHospedaje&amp;gt;&lt;br&gt;" style="text;strokeColor=none;fillColor=none;align=left;verticalAlign=top;spacingLeft=4;spacingRight=4;overflow=hidden;rotatable=0;points=[[0,0.5],[1,0.5]];portConstraint=eastwest;whiteSpace=wrap;html=1;" parent="w5hDPDLTwG2HqgLFjR9o-19" vertex="1">
          <mxGeometry y="26" width="250" height="144" as="geometry" />
        </mxCell>
        <mxCell id="w5hDPDLTwG2HqgLFjR9o-21" value="" style="line;strokeWidth=1;fillColor=none;align=left;verticalAlign=middle;spacingTop=-1;spacingLeft=3;spacingRight=3;rotatable=0;labelPosition=right;points=[];portConstraint=eastwest;strokeColor=inherit;" parent="w5hDPDLTwG2HqgLFjR9o-19" vertex="1">
          <mxGeometry y="170" width="250" height="8" as="geometry" />
        </mxCell>
        <mxCell id="w5hDPDLTwG2HqgLFjR9o-22" value="+getOrigen(): String&amp;nbsp; &amp;nbsp; &amp;nbsp; &amp;nbsp; &amp;nbsp; &amp;nbsp; &amp;nbsp; &amp;nbsp; &amp;nbsp; &amp;nbsp; &amp;nbsp; &amp;nbsp; &amp;nbsp; &amp;nbsp;&amp;nbsp;&lt;br&gt;+getDomicilioOrigen(): String&amp;nbsp; &amp;nbsp; &amp;nbsp; &amp;nbsp; &amp;nbsp; &amp;nbsp; &amp;nbsp; &amp;nbsp; &amp;nbsp; &amp;nbsp;&lt;br&gt;+getHistorial(): List&amp;lt;HistorialHospedaje&amp;gt;" style="text;strokeColor=none;fillColor=none;align=left;verticalAlign=top;spacingLeft=4;spacingRight=4;overflow=hidden;rotatable=0;points=[[0,0.5],[1,0.5]];portConstraint=eastwest;whiteSpace=wrap;html=1;" parent="w5hDPDLTwG2HqgLFjR9o-19" vertex="1">
          <mxGeometry y="178" width="250" height="132" as="geometry" />
        </mxCell>
        <mxCell id="w5hDPDLTwG2HqgLFjR9o-23" value="historialHospedaje" style="swimlane;fontStyle=1;align=center;verticalAlign=top;childLayout=stackLayout;horizontal=1;startSize=26;horizontalStack=0;resizeParent=1;resizeParentMax=0;resizeLast=0;collapsible=1;marginBottom=0;whiteSpace=wrap;html=1;" parent="WIyWlLk6GJQsqaUBKTNV-1" vertex="1">
          <mxGeometry x="-790" y="450" width="190" height="190" as="geometry" />
        </mxCell>
        <mxCell id="w5hDPDLTwG2HqgLFjR9o-24" value="- habitacion: Habitacion&amp;nbsp; &lt;br&gt;&lt;br&gt;- inicio: Date&lt;br&gt;&lt;br&gt;&amp;nbsp;- fin: Date" style="text;strokeColor=none;fillColor=none;align=left;verticalAlign=top;spacingLeft=4;spacingRight=4;overflow=hidden;rotatable=0;points=[[0,0.5],[1,0.5]];portConstraint=eastwest;whiteSpace=wrap;html=1;" parent="w5hDPDLTwG2HqgLFjR9o-23" vertex="1">
          <mxGeometry y="26" width="190" height="84" as="geometry" />
        </mxCell>
        <mxCell id="w5hDPDLTwG2HqgLFjR9o-25" value="" style="line;strokeWidth=1;fillColor=none;align=left;verticalAlign=middle;spacingTop=-1;spacingLeft=3;spacingRight=3;rotatable=0;labelPosition=right;points=[];portConstraint=eastwest;strokeColor=inherit;" parent="w5hDPDLTwG2HqgLFjR9o-23" vertex="1">
          <mxGeometry y="110" width="190" height="8" as="geometry" />
        </mxCell>
        <mxCell id="w5hDPDLTwG2HqgLFjR9o-26" value="+historialHospedaje(DNI usuario) void" style="text;strokeColor=none;fillColor=none;align=left;verticalAlign=top;spacingLeft=4;spacingRight=4;overflow=hidden;rotatable=0;points=[[0,0.5],[1,0.5]];portConstraint=eastwest;whiteSpace=wrap;html=1;" parent="w5hDPDLTwG2HqgLFjR9o-23" vertex="1">
          <mxGeometry y="118" width="190" height="72" as="geometry" />
        </mxCell>
        <mxCell id="6vqsCnwqP6DocsaDPgsZ-1" value="Admin" style="swimlane;fontStyle=0;childLayout=stackLayout;horizontal=1;startSize=26;fillColor=none;horizontalStack=0;resizeParent=1;resizeParentMax=0;resizeLast=0;collapsible=1;marginBottom=0;whiteSpace=wrap;html=1;" parent="WIyWlLk6GJQsqaUBKTNV-1" vertex="1">
          <mxGeometry x="-180" y="820" width="530" height="52" as="geometry" />
        </mxCell>
        <mxCell id="6vqsCnwqP6DocsaDPgsZ-2" value="-idAdmin : int" style="text;strokeColor=none;fillColor=none;align=left;verticalAlign=top;spacingLeft=4;spacingRight=4;overflow=hidden;rotatable=0;points=[[0,0.5],[1,0.5]];portConstraint=eastwest;whiteSpace=wrap;html=1;" parent="6vqsCnwqP6DocsaDPgsZ-1" vertex="1">
          <mxGeometry y="26" width="530" height="26" as="geometry" />
        </mxCell>
        <mxCell id="6vqsCnwqP6DocsaDPgsZ-28" value="Empleado" style="swimlane;fontStyle=0;childLayout=stackLayout;horizontal=1;startSize=26;fillColor=none;horizontalStack=0;resizeParent=1;resizeParentMax=0;resizeLast=0;collapsible=1;marginBottom=0;whiteSpace=wrap;html=1;" parent="WIyWlLk6GJQsqaUBKTNV-1" vertex="1">
          <mxGeometry x="-820" y="840" width="460" height="260" as="geometry" />
        </mxCell>
        <mxCell id="6vqsCnwqP6DocsaDPgsZ-29" value="-datosUsuario : Usuario&lt;br&gt;-cargo: String&lt;br&gt;-id: int" style="text;strokeColor=none;fillColor=none;align=left;verticalAlign=top;spacingLeft=4;spacingRight=4;overflow=hidden;rotatable=0;points=[[0,0.5],[1,0.5]];portConstraint=eastwest;whiteSpace=wrap;html=1;" parent="6vqsCnwqP6DocsaDPgsZ-28" vertex="1">
          <mxGeometry y="26" width="460" height="74" as="geometry" />
        </mxCell>
        <mxCell id="6vqsCnwqP6DocsaDPgsZ-32" value="Metodos" style="swimlane;fontStyle=1;align=center;verticalAlign=top;childLayout=stackLayout;horizontal=1;startSize=26;horizontalStack=0;resizeParent=1;resizeParentMax=0;resizeLast=0;collapsible=1;marginBottom=0;whiteSpace=wrap;html=1;" parent="6vqsCnwqP6DocsaDPgsZ-28" vertex="1">
          <mxGeometry y="100" width="460" height="160" as="geometry" />
        </mxCell>
        <mxCell id="6vqsCnwqP6DocsaDPgsZ-33" value="+ atenderPasajeros(): void&amp;nbsp;&lt;br&gt;" style="text;strokeColor=none;fillColor=none;align=left;verticalAlign=top;spacingLeft=4;spacingRight=4;overflow=hidden;rotatable=0;points=[[0,0.5],[1,0.5]];portConstraint=eastwest;whiteSpace=wrap;html=1;" parent="6vqsCnwqP6DocsaDPgsZ-32" vertex="1">
          <mxGeometry y="26" width="460" height="134" as="geometry" />
        </mxCell>
        <mxCell id="w5hDPDLTwG2HqgLFjR9o-5" value="-nombre: String&lt;br&gt;&lt;br&gt;-direccion: String&lt;br&gt;&lt;br&gt;-habitaciones: List&amp;nbsp;&amp;lt;Habitacion&amp;gt;&lt;br&gt;&lt;br&gt;-reservas: List&amp;lt;Reserva&amp;gt;&lt;br&gt;&lt;br&gt;" style="text;strokeColor=none;fillColor=none;align=left;verticalAlign=top;spacingLeft=4;spacingRight=4;overflow=hidden;rotatable=0;points=[[0,0.5],[1,0.5]];portConstraint=eastwest;whiteSpace=wrap;html=1;" parent="WIyWlLk6GJQsqaUBKTNV-1" vertex="1">
          <mxGeometry x="-690" y="96" width="300" height="144" as="geometry" />
        </mxCell>
        <mxCell id="6vqsCnwqP6DocsaDPgsZ-0" style="edgeStyle=orthogonalEdgeStyle;rounded=0;orthogonalLoop=1;jettySize=auto;html=1;exitX=1;exitY=0.5;exitDx=0;exitDy=0;" parent="WIyWlLk6GJQsqaUBKTNV-1" source="w5hDPDLTwG2HqgLFjR9o-5" target="w5hDPDLTwG2HqgLFjR9o-5" edge="1">
          <mxGeometry relative="1" as="geometry" />
        </mxCell>
        <mxCell id="6vqsCnwqP6DocsaDPgsZ-36" value="Usuario (abstract)" style="swimlane;fontStyle=0;childLayout=stackLayout;horizontal=1;startSize=26;fillColor=none;horizontalStack=0;resizeParent=1;resizeParentMax=0;resizeLast=0;collapsible=1;marginBottom=0;whiteSpace=wrap;html=1;" parent="WIyWlLk6GJQsqaUBKTNV-1" vertex="1">
          <mxGeometry x="-110" y="380" width="480" height="440" as="geometry" />
        </mxCell>
        <mxCell id="6vqsCnwqP6DocsaDPgsZ-37" value="-Nombre:String" style="text;strokeColor=none;fillColor=none;align=left;verticalAlign=top;spacingLeft=4;spacingRight=4;overflow=hidden;rotatable=0;points=[[0,0.5],[1,0.5]];portConstraint=eastwest;whiteSpace=wrap;html=1;" parent="6vqsCnwqP6DocsaDPgsZ-36" vertex="1">
          <mxGeometry y="26" width="480" height="26" as="geometry" />
        </mxCell>
        <mxCell id="6vqsCnwqP6DocsaDPgsZ-38" value="-DNI: String&lt;br&gt;&lt;br&gt;-usuario: String&lt;br&gt;&lt;br&gt;-constrasenia:String&lt;br&gt;&lt;br&gt;-tipoDeCuenta: String&lt;br&gt;" style="text;strokeColor=none;fillColor=none;align=left;verticalAlign=top;spacingLeft=4;spacingRight=4;overflow=hidden;rotatable=0;points=[[0,0.5],[1,0.5]];portConstraint=eastwest;whiteSpace=wrap;html=1;" parent="6vqsCnwqP6DocsaDPgsZ-36" vertex="1">
          <mxGeometry y="52" width="480" height="108" as="geometry" />
        </mxCell>
        <mxCell id="6vqsCnwqP6DocsaDPgsZ-40" value="Metodos" style="swimlane;fontStyle=1;align=center;verticalAlign=top;childLayout=stackLayout;horizontal=1;startSize=26;horizontalStack=0;resizeParent=1;resizeParentMax=0;resizeLast=0;collapsible=1;marginBottom=0;whiteSpace=wrap;html=1;" parent="6vqsCnwqP6DocsaDPgsZ-36" vertex="1">
          <mxGeometry y="160" width="480" height="280" as="geometry" />
        </mxCell>
        <mxCell id="6vqsCnwqP6DocsaDPgsZ-41" value="+getNombre() :Usuario" style="text;strokeColor=none;fillColor=none;align=left;verticalAlign=top;spacingLeft=4;spacingRight=4;overflow=hidden;rotatable=0;points=[[0,0.5],[1,0.5]];portConstraint=eastwest;whiteSpace=wrap;html=1;" parent="6vqsCnwqP6DocsaDPgsZ-40" vertex="1">
          <mxGeometry y="26" width="480" height="26" as="geometry" />
        </mxCell>
        <mxCell id="6vqsCnwqP6DocsaDPgsZ-42" value="" style="line;strokeWidth=1;fillColor=none;align=left;verticalAlign=middle;spacingTop=-1;spacingLeft=3;spacingRight=3;rotatable=0;labelPosition=right;points=[];portConstraint=eastwest;strokeColor=inherit;" parent="6vqsCnwqP6DocsaDPgsZ-40" vertex="1">
          <mxGeometry y="52" width="480" height="8" as="geometry" />
        </mxCell>
        <mxCell id="6vqsCnwqP6DocsaDPgsZ-43" value="+getDNI() :Usuario&lt;br&gt;&lt;br&gt;+crearCuenta(usuario: String, contraseña:String): void&lt;br&gt;&lt;br&gt;+ingresarCuenta(usuario: String, contraseña: String) void&lt;br&gt;&lt;br&gt;+ realizarReserva(reserva: Reserva)&amp;nbsp;&lt;br&gt;&lt;br&gt;&amp;nbsp;+ cancelarReserva(reserva: Reserva)&lt;br&gt;&lt;br&gt;+creacionUsuario(): String&amp;nbsp; &amp;nbsp; &amp;nbsp;&lt;br&gt;&lt;br&gt;&lt;p style=&quot;margin: 0px 0px 0px 4px;&quot;&gt;esPosibleOcuparHabitacionEnPeriodo(habitacion: Habitacion, inicio: Date, fin: Date): boolean&lt;br&gt;&lt;/p&gt;&amp;nbsp; &amp;nbsp; &amp;nbsp; &amp;nbsp;&amp;nbsp;&lt;br&gt;&amp;nbsp; &amp;nbsp; &amp;nbsp; &amp;nbsp; &amp;nbsp; &amp;nbsp;&amp;nbsp;" style="text;strokeColor=none;fillColor=none;align=left;verticalAlign=top;spacingLeft=4;spacingRight=4;overflow=hidden;rotatable=0;points=[[0,0.5],[1,0.5]];portConstraint=eastwest;whiteSpace=wrap;html=1;" parent="6vqsCnwqP6DocsaDPgsZ-40" vertex="1">
          <mxGeometry y="60" width="480" height="220" as="geometry" />
        </mxCell>
        <mxCell id="6vqsCnwqP6DocsaDPgsZ-45" value="Extends" style="endArrow=block;endSize=16;endFill=0;html=1;rounded=0;exitX=0.602;exitY=-0.02;exitDx=0;exitDy=0;exitPerimeter=0;" parent="WIyWlLk6GJQsqaUBKTNV-1" source="6vqsCnwqP6DocsaDPgsZ-28" target="6vqsCnwqP6DocsaDPgsZ-43" edge="1">
          <mxGeometry width="160" relative="1" as="geometry">
            <mxPoint x="30" y="820" as="sourcePoint" />
            <mxPoint x="190" y="820" as="targetPoint" />
          </mxGeometry>
        </mxCell>
        <mxCell id="6vqsCnwqP6DocsaDPgsZ-46" value="Extends" style="endArrow=block;endSize=16;endFill=0;html=1;rounded=0;exitX=0.445;exitY=-0.007;exitDx=0;exitDy=0;exitPerimeter=0;" parent="WIyWlLk6GJQsqaUBKTNV-1" source="w5hDPDLTwG2HqgLFjR9o-19" target="6vqsCnwqP6DocsaDPgsZ-43" edge="1">
          <mxGeometry width="160" relative="1" as="geometry">
            <mxPoint x="30" y="820" as="sourcePoint" />
            <mxPoint x="190" y="820" as="targetPoint" />
          </mxGeometry>
        </mxCell>
        <mxCell id="6vqsCnwqP6DocsaDPgsZ-44" value="Extends" style="endArrow=block;endSize=16;endFill=0;html=1;rounded=0;exitX=0.56;exitY=0.01;exitDx=0;exitDy=0;exitPerimeter=0;entryX=0.452;entryY=1.033;entryDx=0;entryDy=0;entryPerimeter=0;" parent="WIyWlLk6GJQsqaUBKTNV-1" source="6vqsCnwqP6DocsaDPgsZ-1" target="6vqsCnwqP6DocsaDPgsZ-43" edge="1">
          <mxGeometry width="160" relative="1" as="geometry">
            <mxPoint x="67.35" y="820" as="sourcePoint" />
            <mxPoint x="50" y="740" as="targetPoint" />
          </mxGeometry>
        </mxCell>
        <mxCell id="6vqsCnwqP6DocsaDPgsZ-53" value="categoriaHabitacion" style="swimlane;fontStyle=0;childLayout=stackLayout;horizontal=1;startSize=26;fillColor=none;horizontalStack=0;resizeParent=1;resizeParentMax=0;resizeLast=0;collapsible=1;marginBottom=0;whiteSpace=wrap;html=1;" parent="WIyWlLk6GJQsqaUBKTNV-1" vertex="1">
          <mxGeometry x="820" y="250" width="230" height="168" as="geometry" />
        </mxCell>
        <mxCell id="6vqsCnwqP6DocsaDPgsZ-55" value="+ boolean: baseSimple&lt;br&gt;&lt;br&gt;+tipoHabitacion:String" style="text;strokeColor=none;fillColor=none;align=left;verticalAlign=top;spacingLeft=4;spacingRight=4;overflow=hidden;rotatable=0;points=[[0,0.5],[1,0.5]];portConstraint=eastwest;whiteSpace=wrap;html=1;" parent="6vqsCnwqP6DocsaDPgsZ-53" vertex="1">
          <mxGeometry y="26" width="230" height="64" as="geometry" />
        </mxCell>
        <mxCell id="6vqsCnwqP6DocsaDPgsZ-57" value="Metodos" style="swimlane;fontStyle=0;childLayout=stackLayout;horizontal=1;startSize=26;fillColor=none;horizontalStack=0;resizeParent=1;resizeParentMax=0;resizeLast=0;collapsible=1;marginBottom=0;whiteSpace=wrap;html=1;" parent="6vqsCnwqP6DocsaDPgsZ-53" vertex="1">
          <mxGeometry y="90" width="230" height="78" as="geometry" />
        </mxCell>
        <mxCell id="6vqsCnwqP6DocsaDPgsZ-58" value="+getbaseSimple() : categoriaHabitacion" style="text;strokeColor=none;fillColor=none;align=left;verticalAlign=top;spacingLeft=4;spacingRight=4;overflow=hidden;rotatable=0;points=[[0,0.5],[1,0.5]];portConstraint=eastwest;whiteSpace=wrap;html=1;" parent="6vqsCnwqP6DocsaDPgsZ-57" vertex="1">
          <mxGeometry y="26" width="230" height="26" as="geometry" />
        </mxCell>
        <mxCell id="6vqsCnwqP6DocsaDPgsZ-59" value="-gettipoHabitacion(): categoriaHabitacion" style="text;strokeColor=none;fillColor=none;align=left;verticalAlign=top;spacingLeft=4;spacingRight=4;overflow=hidden;rotatable=0;points=[[0,0.5],[1,0.5]];portConstraint=eastwest;whiteSpace=wrap;html=1;" parent="6vqsCnwqP6DocsaDPgsZ-57" vertex="1">
          <mxGeometry y="52" width="230" height="26" as="geometry" />
        </mxCell>
        <mxCell id="g5abdE2KAfVG4bPluXkR-1" value="Metodos" style="swimlane;fontStyle=1;align=center;verticalAlign=top;childLayout=stackLayout;horizontal=1;startSize=26;horizontalStack=0;resizeParent=1;resizeParentMax=0;resizeLast=0;collapsible=1;marginBottom=0;whiteSpace=wrap;html=1;" parent="WIyWlLk6GJQsqaUBKTNV-1" vertex="1">
          <mxGeometry x="-710" y="240" width="300" height="52" as="geometry" />
        </mxCell>
        <mxCell id="g5abdE2KAfVG4bPluXkR-2" value="+menuHotel() void" style="text;strokeColor=none;fillColor=none;align=left;verticalAlign=top;spacingLeft=4;spacingRight=4;overflow=hidden;rotatable=0;points=[[0,0.5],[1,0.5]];portConstraint=eastwest;whiteSpace=wrap;html=1;" parent="g5abdE2KAfVG4bPluXkR-1" vertex="1">
          <mxGeometry y="26" width="300" height="26" as="geometry" />
        </mxCell>
        <mxCell id="g5abdE2KAfVG4bPluXkR-5" value="MAIN" style="swimlane;fontStyle=0;childLayout=stackLayout;horizontal=1;startSize=26;fillColor=none;horizontalStack=0;resizeParent=1;resizeParentMax=0;resizeLast=0;collapsible=1;marginBottom=0;whiteSpace=wrap;html=1;" parent="WIyWlLk6GJQsqaUBKTNV-1" vertex="1">
          <mxGeometry x="-230" y="70" width="140" height="52" as="geometry" />
        </mxCell>
        <mxCell id="g5abdE2KAfVG4bPluXkR-7" value="+menuHotel() void" style="text;strokeColor=none;fillColor=none;align=left;verticalAlign=top;spacingLeft=4;spacingRight=4;overflow=hidden;rotatable=0;points=[[0,0.5],[1,0.5]];portConstraint=eastwest;whiteSpace=wrap;html=1;" parent="g5abdE2KAfVG4bPluXkR-5" vertex="1">
          <mxGeometry y="26" width="140" height="26" as="geometry" />
        </mxCell>
        <mxCell id="g5abdE2KAfVG4bPluXkR-9" value="&lt;p style=&quot;margin:0px;margin-top:4px;text-align:center;&quot;&gt;&lt;i&gt;&amp;lt;&amp;lt;Interface&amp;gt;&amp;gt;&lt;/i&gt;&lt;br&gt;&lt;b&gt;I_funcionesInternas&lt;/b&gt;&lt;/p&gt;&lt;p style=&quot;margin:0px;margin-left:4px;&quot;&gt;&lt;br&gt;&lt;/p&gt;&lt;hr size=&quot;1&quot;&gt;&lt;p style=&quot;margin:0px;margin-left:4px;&quot;&gt;+verPasajeros() void&lt;br&gt;+ empleadosHotel() void&lt;/p&gt;&lt;p style=&quot;margin:0px;margin-left:4px;&quot;&gt;+verHabitaciones() void&lt;/p&gt;&lt;p style=&quot;margin:0px;margin-left:4px;&quot;&gt;+ obtenerHabitacionesDisponibles(): List&amp;lt;Habitacion&amp;gt;&amp;nbsp;&lt;br&gt;&amp;nbsp;+ obtenerHabitacionesOcupadas(): List&amp;lt;Habitacion&amp;gt;&amp;nbsp; &amp;nbsp;&lt;br&gt;&amp;nbsp;+ obtenerHabitacionesNoDisponibles(): List&amp;lt;Habitacion&amp;gt;&lt;br&gt;&lt;/p&gt;&lt;p style=&quot;margin:0px;margin-left:4px;&quot;&gt;&lt;span style=&quot;background-color: initial;&quot;&gt;+ obtenerEstadoHabitacion(habitacion: Habitacion): EstadoHabitacion&lt;/span&gt;&lt;/p&gt;" style="verticalAlign=top;align=left;overflow=fill;fontSize=12;fontFamily=Helvetica;html=1;whiteSpace=wrap;" parent="WIyWlLk6GJQsqaUBKTNV-1" vertex="1">
          <mxGeometry x="-460" y="1190" width="310" height="240" as="geometry" />
        </mxCell>
        <mxCell id="g5abdE2KAfVG4bPluXkR-10" value="" style="endArrow=block;dashed=1;endFill=0;endSize=12;html=1;rounded=0;exitX=0.387;exitY=-0.016;exitDx=0;exitDy=0;exitPerimeter=0;" parent="WIyWlLk6GJQsqaUBKTNV-1" source="g5abdE2KAfVG4bPluXkR-9" target="6vqsCnwqP6DocsaDPgsZ-33" edge="1">
          <mxGeometry width="160" relative="1" as="geometry">
            <mxPoint x="-270" y="880" as="sourcePoint" />
            <mxPoint x="-110" y="880" as="targetPoint" />
          </mxGeometry>
        </mxCell>
        <mxCell id="g5abdE2KAfVG4bPluXkR-11" value="" style="endArrow=block;dashed=1;endFill=0;endSize=12;html=1;rounded=0;exitX=0.75;exitY=0;exitDx=0;exitDy=0;entryX=-0.01;entryY=0.17;entryDx=0;entryDy=0;entryPerimeter=0;" parent="WIyWlLk6GJQsqaUBKTNV-1" source="g5abdE2KAfVG4bPluXkR-9" target="w5hDPDLTwG2HqgLFjR9o-8" edge="1">
          <mxGeometry width="160" relative="1" as="geometry">
            <mxPoint x="-270" y="880" as="sourcePoint" />
            <mxPoint x="-110" y="880" as="targetPoint" />
          </mxGeometry>
        </mxCell>
      </root>
    </mxGraphModel>
  </diagram>
</mxfile>
